<mxfile host="app.diagrams.net" modified="2020-10-11T16:05:59.227Z" agent="5.0 (Windows NT 10.0; Win64; x64) AppleWebKit/537.36 (KHTML, like Gecko) Chrome/86.0.4240.75 Safari/537.36" etag="kLypZN846teD2ZnYU_Hz" version="13.7.9" type="github">
  <diagram id="qdKKblGeRx55hsDK6OFx" name="Page-1">
    <mxGraphModel dx="1038" dy="580" grid="1" gridSize="10" guides="1" tooltips="1" connect="1" arrows="1" fold="1" page="1" pageScale="1" pageWidth="850" pageHeight="1100" math="0" shadow="0">
      <root>
        <mxCell id="0" />
        <mxCell id="1" parent="0" />
        <mxCell id="4C-m3Tlw4VcEuLrEaa6P-1" value="&lt;span style=&quot;font-size: 29px&quot;&gt;Golf Socrecard&lt;/span&gt;" style="text;html=1;strokeColor=none;fillColor=none;align=center;verticalAlign=middle;whiteSpace=wrap;rounded=0;" vertex="1" parent="1">
          <mxGeometry y="20" width="210" height="80" as="geometry" />
        </mxCell>
        <mxCell id="4C-m3Tlw4VcEuLrEaa6P-2" value="" style="rounded=1;whiteSpace=wrap;html=1;fillColor=#f5f5f5;strokeColor=#666666;fontColor=#333333;" vertex="1" parent="1">
          <mxGeometry y="80" width="850" height="40" as="geometry" />
        </mxCell>
        <mxCell id="4C-m3Tlw4VcEuLrEaa6P-3" value="&lt;font style=&quot;font-size: 17px&quot;&gt;Holes&lt;/font&gt;" style="text;html=1;strokeColor=none;fillColor=none;align=center;verticalAlign=middle;whiteSpace=wrap;rounded=0;" vertex="1" parent="1">
          <mxGeometry x="85" y="90" width="40" height="20" as="geometry" />
        </mxCell>
        <mxCell id="4C-m3Tlw4VcEuLrEaa6P-4" value="&lt;font style=&quot;font-size: 17px&quot;&gt;Par&lt;/font&gt;" style="text;html=1;strokeColor=none;fillColor=none;align=center;verticalAlign=middle;whiteSpace=wrap;rounded=0;" vertex="1" parent="1">
          <mxGeometry x="230" y="90" width="40" height="20" as="geometry" />
        </mxCell>
        <mxCell id="4C-m3Tlw4VcEuLrEaa6P-8" value="&lt;span style=&quot;font-size: 17px&quot;&gt;Score&lt;/span&gt;" style="text;html=1;strokeColor=none;fillColor=none;align=center;verticalAlign=middle;whiteSpace=wrap;rounded=0;strokeWidth=6;" vertex="1" parent="1">
          <mxGeometry x="405" y="90" width="40" height="20" as="geometry" />
        </mxCell>
        <mxCell id="4C-m3Tlw4VcEuLrEaa6P-9" value="&lt;span style=&quot;font-size: 17px&quot;&gt;Over&lt;/span&gt;" style="text;html=1;strokeColor=none;fillColor=none;align=center;verticalAlign=middle;whiteSpace=wrap;rounded=0;" vertex="1" parent="1">
          <mxGeometry x="570" y="90" width="40" height="20" as="geometry" />
        </mxCell>
        <mxCell id="4C-m3Tlw4VcEuLrEaa6P-10" value="&lt;font style=&quot;font-size: 17px&quot;&gt;Actions&lt;/font&gt;" style="text;html=1;strokeColor=none;fillColor=none;align=center;verticalAlign=middle;whiteSpace=wrap;rounded=0;" vertex="1" parent="1">
          <mxGeometry x="720" y="90" width="70" height="20" as="geometry" />
        </mxCell>
        <mxCell id="4C-m3Tlw4VcEuLrEaa6P-11" value="" style="rounded=1;whiteSpace=wrap;html=1;" vertex="1" parent="1">
          <mxGeometry y="120" width="850" height="40" as="geometry" />
        </mxCell>
        <mxCell id="4C-m3Tlw4VcEuLrEaa6P-12" value="&lt;span style=&quot;font-size: 17px&quot;&gt;1&lt;/span&gt;" style="text;html=1;strokeColor=none;fillColor=none;align=center;verticalAlign=middle;whiteSpace=wrap;rounded=0;" vertex="1" parent="1">
          <mxGeometry x="85" y="130" width="40" height="20" as="geometry" />
        </mxCell>
        <mxCell id="4C-m3Tlw4VcEuLrEaa6P-13" value="&lt;span style=&quot;font-size: 17px&quot;&gt;4&lt;/span&gt;" style="text;html=1;strokeColor=none;fillColor=none;align=center;verticalAlign=middle;whiteSpace=wrap;rounded=0;" vertex="1" parent="1">
          <mxGeometry x="230" y="130" width="40" height="20" as="geometry" />
        </mxCell>
        <mxCell id="4C-m3Tlw4VcEuLrEaa6P-14" value="&lt;span style=&quot;font-size: 17px&quot;&gt;-&lt;/span&gt;" style="text;html=1;strokeColor=none;fillColor=none;align=center;verticalAlign=middle;whiteSpace=wrap;rounded=0;strokeWidth=6;" vertex="1" parent="1">
          <mxGeometry x="405" y="130" width="40" height="20" as="geometry" />
        </mxCell>
        <mxCell id="4C-m3Tlw4VcEuLrEaa6P-15" value="&lt;span style=&quot;font-size: 17px&quot;&gt;-&lt;/span&gt;" style="text;html=1;strokeColor=none;fillColor=none;align=center;verticalAlign=middle;whiteSpace=wrap;rounded=0;" vertex="1" parent="1">
          <mxGeometry x="570" y="130" width="40" height="20" as="geometry" />
        </mxCell>
        <mxCell id="4C-m3Tlw4VcEuLrEaa6P-18" value="" style="whiteSpace=wrap;html=1;aspect=fixed;strokeWidth=6;strokeColor=none;fillColor=#66CC00;" vertex="1" parent="1">
          <mxGeometry x="720" y="120" width="40" height="40" as="geometry" />
        </mxCell>
        <mxCell id="4C-m3Tlw4VcEuLrEaa6P-31" value="" style="whiteSpace=wrap;html=1;aspect=fixed;strokeWidth=6;strokeColor=none;fillColor=#FF0000;" vertex="1" parent="1">
          <mxGeometry x="760" y="120" width="40" height="40" as="geometry" />
        </mxCell>
        <mxCell id="4C-m3Tlw4VcEuLrEaa6P-38" value="&lt;font color=&quot;#ffffff&quot; style=&quot;font-size: 27px&quot;&gt;+&lt;/font&gt;" style="text;html=1;strokeColor=none;fillColor=none;align=center;verticalAlign=middle;whiteSpace=wrap;rounded=0;" vertex="1" parent="1">
          <mxGeometry x="720" y="130" width="40" height="20" as="geometry" />
        </mxCell>
        <mxCell id="4C-m3Tlw4VcEuLrEaa6P-39" value="&lt;font color=&quot;#ffffff&quot; style=&quot;font-size: 27px&quot;&gt;-&lt;/font&gt;" style="text;html=1;strokeColor=none;fillColor=none;align=center;verticalAlign=middle;whiteSpace=wrap;rounded=0;" vertex="1" parent="1">
          <mxGeometry x="760" y="130" width="40" height="20" as="geometry" />
        </mxCell>
        <mxCell id="4C-m3Tlw4VcEuLrEaa6P-41" value="" style="rounded=1;whiteSpace=wrap;html=1;fillColor=#f5f5f5;strokeColor=#666666;fontColor=#333333;" vertex="1" parent="1">
          <mxGeometry y="160" width="850" height="40" as="geometry" />
        </mxCell>
        <mxCell id="4C-m3Tlw4VcEuLrEaa6P-42" value="&lt;span style=&quot;font-size: 17px&quot;&gt;2&lt;/span&gt;" style="text;html=1;strokeColor=none;fillColor=none;align=center;verticalAlign=middle;whiteSpace=wrap;rounded=0;" vertex="1" parent="1">
          <mxGeometry x="85" y="170" width="40" height="20" as="geometry" />
        </mxCell>
        <mxCell id="4C-m3Tlw4VcEuLrEaa6P-43" value="&lt;span style=&quot;font-size: 17px&quot;&gt;4&lt;/span&gt;" style="text;html=1;strokeColor=none;fillColor=none;align=center;verticalAlign=middle;whiteSpace=wrap;rounded=0;" vertex="1" parent="1">
          <mxGeometry x="230" y="170" width="40" height="20" as="geometry" />
        </mxCell>
        <mxCell id="4C-m3Tlw4VcEuLrEaa6P-44" value="&lt;span style=&quot;font-size: 17px&quot;&gt;-&lt;/span&gt;" style="text;html=1;strokeColor=none;fillColor=none;align=center;verticalAlign=middle;whiteSpace=wrap;rounded=0;strokeWidth=6;" vertex="1" parent="1">
          <mxGeometry x="405" y="170" width="40" height="20" as="geometry" />
        </mxCell>
        <mxCell id="4C-m3Tlw4VcEuLrEaa6P-45" value="&lt;span style=&quot;font-size: 17px&quot;&gt;-&lt;/span&gt;" style="text;html=1;strokeColor=none;fillColor=none;align=center;verticalAlign=middle;whiteSpace=wrap;rounded=0;" vertex="1" parent="1">
          <mxGeometry x="570" y="170" width="40" height="20" as="geometry" />
        </mxCell>
        <mxCell id="4C-m3Tlw4VcEuLrEaa6P-46" value="" style="whiteSpace=wrap;html=1;aspect=fixed;strokeWidth=6;strokeColor=none;fillColor=#66CC00;" vertex="1" parent="1">
          <mxGeometry x="720" y="160" width="40" height="40" as="geometry" />
        </mxCell>
        <mxCell id="4C-m3Tlw4VcEuLrEaa6P-47" value="" style="whiteSpace=wrap;html=1;aspect=fixed;strokeWidth=6;strokeColor=none;fillColor=#FF0000;" vertex="1" parent="1">
          <mxGeometry x="760" y="160" width="40" height="40" as="geometry" />
        </mxCell>
        <mxCell id="4C-m3Tlw4VcEuLrEaa6P-48" value="&lt;font color=&quot;#ffffff&quot; style=&quot;font-size: 27px&quot;&gt;+&lt;/font&gt;" style="text;html=1;strokeColor=none;fillColor=none;align=center;verticalAlign=middle;whiteSpace=wrap;rounded=0;" vertex="1" parent="1">
          <mxGeometry x="720" y="170" width="40" height="20" as="geometry" />
        </mxCell>
        <mxCell id="4C-m3Tlw4VcEuLrEaa6P-49" value="&lt;font color=&quot;#ffffff&quot; style=&quot;font-size: 27px&quot;&gt;-&lt;/font&gt;" style="text;html=1;strokeColor=none;fillColor=none;align=center;verticalAlign=middle;whiteSpace=wrap;rounded=0;" vertex="1" parent="1">
          <mxGeometry x="760" y="170" width="40" height="20" as="geometry" />
        </mxCell>
        <mxCell id="4C-m3Tlw4VcEuLrEaa6P-50" value="" style="rounded=1;whiteSpace=wrap;html=1;" vertex="1" parent="1">
          <mxGeometry y="200" width="850" height="40" as="geometry" />
        </mxCell>
        <mxCell id="4C-m3Tlw4VcEuLrEaa6P-51" value="&lt;span style=&quot;font-size: 17px&quot;&gt;3&lt;/span&gt;" style="text;html=1;strokeColor=none;fillColor=none;align=center;verticalAlign=middle;whiteSpace=wrap;rounded=0;" vertex="1" parent="1">
          <mxGeometry x="85" y="210" width="40" height="20" as="geometry" />
        </mxCell>
        <mxCell id="4C-m3Tlw4VcEuLrEaa6P-52" value="&lt;span style=&quot;font-size: 17px&quot;&gt;4&lt;/span&gt;" style="text;html=1;strokeColor=none;fillColor=none;align=center;verticalAlign=middle;whiteSpace=wrap;rounded=0;" vertex="1" parent="1">
          <mxGeometry x="230" y="210" width="40" height="20" as="geometry" />
        </mxCell>
        <mxCell id="4C-m3Tlw4VcEuLrEaa6P-53" value="&lt;span style=&quot;font-size: 17px&quot;&gt;-&lt;/span&gt;" style="text;html=1;strokeColor=none;fillColor=none;align=center;verticalAlign=middle;whiteSpace=wrap;rounded=0;strokeWidth=6;" vertex="1" parent="1">
          <mxGeometry x="405" y="210" width="40" height="20" as="geometry" />
        </mxCell>
        <mxCell id="4C-m3Tlw4VcEuLrEaa6P-54" value="&lt;span style=&quot;font-size: 17px&quot;&gt;-&lt;/span&gt;" style="text;html=1;strokeColor=none;fillColor=none;align=center;verticalAlign=middle;whiteSpace=wrap;rounded=0;" vertex="1" parent="1">
          <mxGeometry x="570" y="210" width="40" height="20" as="geometry" />
        </mxCell>
        <mxCell id="4C-m3Tlw4VcEuLrEaa6P-55" value="" style="whiteSpace=wrap;html=1;aspect=fixed;strokeWidth=6;strokeColor=none;fillColor=#66CC00;" vertex="1" parent="1">
          <mxGeometry x="720" y="200" width="40" height="40" as="geometry" />
        </mxCell>
        <mxCell id="4C-m3Tlw4VcEuLrEaa6P-56" value="" style="whiteSpace=wrap;html=1;aspect=fixed;strokeWidth=6;strokeColor=none;fillColor=#FF0000;" vertex="1" parent="1">
          <mxGeometry x="760" y="200" width="40" height="40" as="geometry" />
        </mxCell>
        <mxCell id="4C-m3Tlw4VcEuLrEaa6P-57" value="&lt;font color=&quot;#ffffff&quot; style=&quot;font-size: 27px&quot;&gt;+&lt;/font&gt;" style="text;html=1;strokeColor=none;fillColor=none;align=center;verticalAlign=middle;whiteSpace=wrap;rounded=0;" vertex="1" parent="1">
          <mxGeometry x="720" y="210" width="40" height="20" as="geometry" />
        </mxCell>
        <mxCell id="4C-m3Tlw4VcEuLrEaa6P-58" value="&lt;font color=&quot;#ffffff&quot; style=&quot;font-size: 27px&quot;&gt;-&lt;/font&gt;" style="text;html=1;strokeColor=none;fillColor=none;align=center;verticalAlign=middle;whiteSpace=wrap;rounded=0;" vertex="1" parent="1">
          <mxGeometry x="760" y="210" width="40" height="20" as="geometry" />
        </mxCell>
        <mxCell id="4C-m3Tlw4VcEuLrEaa6P-59" value="" style="rounded=1;whiteSpace=wrap;html=1;fillColor=#f5f5f5;strokeColor=#666666;fontColor=#333333;" vertex="1" parent="1">
          <mxGeometry y="240" width="850" height="40" as="geometry" />
        </mxCell>
        <mxCell id="4C-m3Tlw4VcEuLrEaa6P-60" value="&lt;span style=&quot;font-size: 17px&quot;&gt;4&lt;/span&gt;" style="text;html=1;strokeColor=none;fillColor=none;align=center;verticalAlign=middle;whiteSpace=wrap;rounded=0;" vertex="1" parent="1">
          <mxGeometry x="85" y="250" width="40" height="20" as="geometry" />
        </mxCell>
        <mxCell id="4C-m3Tlw4VcEuLrEaa6P-61" value="&lt;span style=&quot;font-size: 17px&quot;&gt;4&lt;/span&gt;" style="text;html=1;strokeColor=none;fillColor=none;align=center;verticalAlign=middle;whiteSpace=wrap;rounded=0;" vertex="1" parent="1">
          <mxGeometry x="230" y="250" width="40" height="20" as="geometry" />
        </mxCell>
        <mxCell id="4C-m3Tlw4VcEuLrEaa6P-62" value="&lt;span style=&quot;font-size: 17px&quot;&gt;-&lt;/span&gt;" style="text;html=1;strokeColor=none;fillColor=none;align=center;verticalAlign=middle;whiteSpace=wrap;rounded=0;strokeWidth=6;" vertex="1" parent="1">
          <mxGeometry x="405" y="250" width="40" height="20" as="geometry" />
        </mxCell>
        <mxCell id="4C-m3Tlw4VcEuLrEaa6P-63" value="&lt;span style=&quot;font-size: 17px&quot;&gt;-&lt;/span&gt;" style="text;html=1;strokeColor=none;fillColor=none;align=center;verticalAlign=middle;whiteSpace=wrap;rounded=0;" vertex="1" parent="1">
          <mxGeometry x="570" y="250" width="40" height="20" as="geometry" />
        </mxCell>
        <mxCell id="4C-m3Tlw4VcEuLrEaa6P-64" value="" style="whiteSpace=wrap;html=1;aspect=fixed;strokeWidth=6;strokeColor=none;fillColor=#66CC00;" vertex="1" parent="1">
          <mxGeometry x="720" y="240" width="40" height="40" as="geometry" />
        </mxCell>
        <mxCell id="4C-m3Tlw4VcEuLrEaa6P-65" value="" style="whiteSpace=wrap;html=1;aspect=fixed;strokeWidth=6;strokeColor=none;fillColor=#FF0000;" vertex="1" parent="1">
          <mxGeometry x="760" y="240" width="40" height="40" as="geometry" />
        </mxCell>
        <mxCell id="4C-m3Tlw4VcEuLrEaa6P-66" value="&lt;font color=&quot;#ffffff&quot; style=&quot;font-size: 27px&quot;&gt;+&lt;/font&gt;" style="text;html=1;strokeColor=none;fillColor=none;align=center;verticalAlign=middle;whiteSpace=wrap;rounded=0;" vertex="1" parent="1">
          <mxGeometry x="720" y="250" width="40" height="20" as="geometry" />
        </mxCell>
        <mxCell id="4C-m3Tlw4VcEuLrEaa6P-67" value="&lt;font color=&quot;#ffffff&quot; style=&quot;font-size: 27px&quot;&gt;-&lt;/font&gt;" style="text;html=1;strokeColor=none;fillColor=none;align=center;verticalAlign=middle;whiteSpace=wrap;rounded=0;" vertex="1" parent="1">
          <mxGeometry x="760" y="250" width="40" height="20" as="geometry" />
        </mxCell>
        <mxCell id="4C-m3Tlw4VcEuLrEaa6P-68" value="" style="rounded=1;whiteSpace=wrap;html=1;" vertex="1" parent="1">
          <mxGeometry y="280" width="850" height="40" as="geometry" />
        </mxCell>
        <mxCell id="4C-m3Tlw4VcEuLrEaa6P-69" value="&lt;span style=&quot;font-size: 17px&quot;&gt;5&lt;/span&gt;" style="text;html=1;strokeColor=none;fillColor=none;align=center;verticalAlign=middle;whiteSpace=wrap;rounded=0;" vertex="1" parent="1">
          <mxGeometry x="85" y="290" width="40" height="20" as="geometry" />
        </mxCell>
        <mxCell id="4C-m3Tlw4VcEuLrEaa6P-70" value="&lt;span style=&quot;font-size: 17px&quot;&gt;4&lt;/span&gt;" style="text;html=1;strokeColor=none;fillColor=none;align=center;verticalAlign=middle;whiteSpace=wrap;rounded=0;" vertex="1" parent="1">
          <mxGeometry x="230" y="290" width="40" height="20" as="geometry" />
        </mxCell>
        <mxCell id="4C-m3Tlw4VcEuLrEaa6P-71" value="&lt;span style=&quot;font-size: 17px&quot;&gt;-&lt;/span&gt;" style="text;html=1;strokeColor=none;fillColor=none;align=center;verticalAlign=middle;whiteSpace=wrap;rounded=0;strokeWidth=6;" vertex="1" parent="1">
          <mxGeometry x="405" y="290" width="40" height="20" as="geometry" />
        </mxCell>
        <mxCell id="4C-m3Tlw4VcEuLrEaa6P-72" value="&lt;span style=&quot;font-size: 17px&quot;&gt;-&lt;/span&gt;" style="text;html=1;strokeColor=none;fillColor=none;align=center;verticalAlign=middle;whiteSpace=wrap;rounded=0;" vertex="1" parent="1">
          <mxGeometry x="570" y="290" width="40" height="20" as="geometry" />
        </mxCell>
        <mxCell id="4C-m3Tlw4VcEuLrEaa6P-73" value="" style="whiteSpace=wrap;html=1;aspect=fixed;strokeWidth=6;strokeColor=none;fillColor=#66CC00;" vertex="1" parent="1">
          <mxGeometry x="720" y="280" width="40" height="40" as="geometry" />
        </mxCell>
        <mxCell id="4C-m3Tlw4VcEuLrEaa6P-74" value="" style="whiteSpace=wrap;html=1;aspect=fixed;strokeWidth=6;strokeColor=none;fillColor=#FF0000;" vertex="1" parent="1">
          <mxGeometry x="760" y="280" width="40" height="40" as="geometry" />
        </mxCell>
        <mxCell id="4C-m3Tlw4VcEuLrEaa6P-75" value="&lt;font color=&quot;#ffffff&quot; style=&quot;font-size: 27px&quot;&gt;+&lt;/font&gt;" style="text;html=1;strokeColor=none;fillColor=none;align=center;verticalAlign=middle;whiteSpace=wrap;rounded=0;" vertex="1" parent="1">
          <mxGeometry x="720" y="290" width="40" height="20" as="geometry" />
        </mxCell>
        <mxCell id="4C-m3Tlw4VcEuLrEaa6P-76" value="&lt;font color=&quot;#ffffff&quot; style=&quot;font-size: 27px&quot;&gt;-&lt;/font&gt;" style="text;html=1;strokeColor=none;fillColor=none;align=center;verticalAlign=middle;whiteSpace=wrap;rounded=0;" vertex="1" parent="1">
          <mxGeometry x="760" y="290" width="40" height="20" as="geometry" />
        </mxCell>
        <mxCell id="4C-m3Tlw4VcEuLrEaa6P-77" value="" style="rounded=1;whiteSpace=wrap;html=1;fillColor=#f5f5f5;strokeColor=#666666;fontColor=#333333;" vertex="1" parent="1">
          <mxGeometry y="320" width="850" height="40" as="geometry" />
        </mxCell>
        <mxCell id="4C-m3Tlw4VcEuLrEaa6P-78" value="&lt;span style=&quot;font-size: 17px&quot;&gt;6&lt;/span&gt;" style="text;html=1;strokeColor=none;fillColor=none;align=center;verticalAlign=middle;whiteSpace=wrap;rounded=0;" vertex="1" parent="1">
          <mxGeometry x="85" y="330" width="40" height="20" as="geometry" />
        </mxCell>
        <mxCell id="4C-m3Tlw4VcEuLrEaa6P-79" value="&lt;span style=&quot;font-size: 17px&quot;&gt;4&lt;/span&gt;" style="text;html=1;strokeColor=none;fillColor=none;align=center;verticalAlign=middle;whiteSpace=wrap;rounded=0;" vertex="1" parent="1">
          <mxGeometry x="230" y="330" width="40" height="20" as="geometry" />
        </mxCell>
        <mxCell id="4C-m3Tlw4VcEuLrEaa6P-80" value="&lt;span style=&quot;font-size: 17px&quot;&gt;-&lt;/span&gt;" style="text;html=1;strokeColor=none;fillColor=none;align=center;verticalAlign=middle;whiteSpace=wrap;rounded=0;strokeWidth=6;" vertex="1" parent="1">
          <mxGeometry x="405" y="330" width="40" height="20" as="geometry" />
        </mxCell>
        <mxCell id="4C-m3Tlw4VcEuLrEaa6P-81" value="&lt;span style=&quot;font-size: 17px&quot;&gt;-&lt;/span&gt;" style="text;html=1;strokeColor=none;fillColor=none;align=center;verticalAlign=middle;whiteSpace=wrap;rounded=0;" vertex="1" parent="1">
          <mxGeometry x="570" y="330" width="40" height="20" as="geometry" />
        </mxCell>
        <mxCell id="4C-m3Tlw4VcEuLrEaa6P-82" value="" style="whiteSpace=wrap;html=1;aspect=fixed;strokeWidth=6;strokeColor=none;fillColor=#66CC00;" vertex="1" parent="1">
          <mxGeometry x="720" y="320" width="40" height="40" as="geometry" />
        </mxCell>
        <mxCell id="4C-m3Tlw4VcEuLrEaa6P-83" value="" style="whiteSpace=wrap;html=1;aspect=fixed;strokeWidth=6;strokeColor=none;fillColor=#FF0000;" vertex="1" parent="1">
          <mxGeometry x="760" y="320" width="40" height="40" as="geometry" />
        </mxCell>
        <mxCell id="4C-m3Tlw4VcEuLrEaa6P-84" value="&lt;font color=&quot;#ffffff&quot; style=&quot;font-size: 27px&quot;&gt;+&lt;/font&gt;" style="text;html=1;strokeColor=none;fillColor=none;align=center;verticalAlign=middle;whiteSpace=wrap;rounded=0;" vertex="1" parent="1">
          <mxGeometry x="720" y="330" width="40" height="20" as="geometry" />
        </mxCell>
        <mxCell id="4C-m3Tlw4VcEuLrEaa6P-85" value="&lt;font color=&quot;#ffffff&quot; style=&quot;font-size: 27px&quot;&gt;-&lt;/font&gt;" style="text;html=1;strokeColor=none;fillColor=none;align=center;verticalAlign=middle;whiteSpace=wrap;rounded=0;" vertex="1" parent="1">
          <mxGeometry x="760" y="330" width="40" height="20" as="geometry" />
        </mxCell>
        <mxCell id="4C-m3Tlw4VcEuLrEaa6P-86" value="" style="rounded=1;whiteSpace=wrap;html=1;" vertex="1" parent="1">
          <mxGeometry y="360" width="850" height="40" as="geometry" />
        </mxCell>
        <mxCell id="4C-m3Tlw4VcEuLrEaa6P-87" value="&lt;span style=&quot;font-size: 17px&quot;&gt;7&lt;/span&gt;" style="text;html=1;strokeColor=none;fillColor=none;align=center;verticalAlign=middle;whiteSpace=wrap;rounded=0;" vertex="1" parent="1">
          <mxGeometry x="85" y="370" width="40" height="20" as="geometry" />
        </mxCell>
        <mxCell id="4C-m3Tlw4VcEuLrEaa6P-88" value="&lt;span style=&quot;font-size: 17px&quot;&gt;4&lt;/span&gt;" style="text;html=1;strokeColor=none;fillColor=none;align=center;verticalAlign=middle;whiteSpace=wrap;rounded=0;" vertex="1" parent="1">
          <mxGeometry x="230" y="370" width="40" height="20" as="geometry" />
        </mxCell>
        <mxCell id="4C-m3Tlw4VcEuLrEaa6P-89" value="&lt;span style=&quot;font-size: 17px&quot;&gt;-&lt;/span&gt;" style="text;html=1;strokeColor=none;fillColor=none;align=center;verticalAlign=middle;whiteSpace=wrap;rounded=0;strokeWidth=6;" vertex="1" parent="1">
          <mxGeometry x="405" y="370" width="40" height="20" as="geometry" />
        </mxCell>
        <mxCell id="4C-m3Tlw4VcEuLrEaa6P-90" value="&lt;span style=&quot;font-size: 17px&quot;&gt;-&lt;/span&gt;" style="text;html=1;strokeColor=none;fillColor=none;align=center;verticalAlign=middle;whiteSpace=wrap;rounded=0;" vertex="1" parent="1">
          <mxGeometry x="570" y="370" width="40" height="20" as="geometry" />
        </mxCell>
        <mxCell id="4C-m3Tlw4VcEuLrEaa6P-91" value="" style="whiteSpace=wrap;html=1;aspect=fixed;strokeWidth=6;strokeColor=none;fillColor=#66CC00;" vertex="1" parent="1">
          <mxGeometry x="720" y="360" width="40" height="40" as="geometry" />
        </mxCell>
        <mxCell id="4C-m3Tlw4VcEuLrEaa6P-92" value="" style="whiteSpace=wrap;html=1;aspect=fixed;strokeWidth=6;strokeColor=none;fillColor=#FF0000;" vertex="1" parent="1">
          <mxGeometry x="760" y="360" width="40" height="40" as="geometry" />
        </mxCell>
        <mxCell id="4C-m3Tlw4VcEuLrEaa6P-93" value="&lt;font color=&quot;#ffffff&quot; style=&quot;font-size: 27px&quot;&gt;+&lt;/font&gt;" style="text;html=1;strokeColor=none;fillColor=none;align=center;verticalAlign=middle;whiteSpace=wrap;rounded=0;" vertex="1" parent="1">
          <mxGeometry x="720" y="370" width="40" height="20" as="geometry" />
        </mxCell>
        <mxCell id="4C-m3Tlw4VcEuLrEaa6P-94" value="&lt;font color=&quot;#ffffff&quot; style=&quot;font-size: 27px&quot;&gt;-&lt;/font&gt;" style="text;html=1;strokeColor=none;fillColor=none;align=center;verticalAlign=middle;whiteSpace=wrap;rounded=0;" vertex="1" parent="1">
          <mxGeometry x="760" y="370" width="40" height="20" as="geometry" />
        </mxCell>
        <mxCell id="4C-m3Tlw4VcEuLrEaa6P-95" value="" style="rounded=1;whiteSpace=wrap;html=1;fillColor=#f5f5f5;strokeColor=#666666;fontColor=#333333;" vertex="1" parent="1">
          <mxGeometry y="400" width="850" height="40" as="geometry" />
        </mxCell>
        <mxCell id="4C-m3Tlw4VcEuLrEaa6P-96" value="&lt;span style=&quot;font-size: 17px&quot;&gt;8&lt;/span&gt;" style="text;html=1;strokeColor=none;fillColor=none;align=center;verticalAlign=middle;whiteSpace=wrap;rounded=0;" vertex="1" parent="1">
          <mxGeometry x="85" y="410" width="40" height="20" as="geometry" />
        </mxCell>
        <mxCell id="4C-m3Tlw4VcEuLrEaa6P-97" value="&lt;span style=&quot;font-size: 17px&quot;&gt;4&lt;/span&gt;" style="text;html=1;strokeColor=none;fillColor=none;align=center;verticalAlign=middle;whiteSpace=wrap;rounded=0;" vertex="1" parent="1">
          <mxGeometry x="230" y="410" width="40" height="20" as="geometry" />
        </mxCell>
        <mxCell id="4C-m3Tlw4VcEuLrEaa6P-98" value="&lt;span style=&quot;font-size: 17px&quot;&gt;-&lt;/span&gt;" style="text;html=1;strokeColor=none;fillColor=none;align=center;verticalAlign=middle;whiteSpace=wrap;rounded=0;strokeWidth=6;" vertex="1" parent="1">
          <mxGeometry x="405" y="410" width="40" height="20" as="geometry" />
        </mxCell>
        <mxCell id="4C-m3Tlw4VcEuLrEaa6P-99" value="&lt;span style=&quot;font-size: 17px&quot;&gt;-&lt;/span&gt;" style="text;html=1;strokeColor=none;fillColor=none;align=center;verticalAlign=middle;whiteSpace=wrap;rounded=0;" vertex="1" parent="1">
          <mxGeometry x="570" y="410" width="40" height="20" as="geometry" />
        </mxCell>
        <mxCell id="4C-m3Tlw4VcEuLrEaa6P-100" value="" style="whiteSpace=wrap;html=1;aspect=fixed;strokeWidth=6;strokeColor=none;fillColor=#66CC00;" vertex="1" parent="1">
          <mxGeometry x="720" y="400" width="40" height="40" as="geometry" />
        </mxCell>
        <mxCell id="4C-m3Tlw4VcEuLrEaa6P-101" value="" style="whiteSpace=wrap;html=1;aspect=fixed;strokeWidth=6;strokeColor=none;fillColor=#FF0000;" vertex="1" parent="1">
          <mxGeometry x="760" y="400" width="40" height="40" as="geometry" />
        </mxCell>
        <mxCell id="4C-m3Tlw4VcEuLrEaa6P-102" value="&lt;font color=&quot;#ffffff&quot; style=&quot;font-size: 27px&quot;&gt;+&lt;/font&gt;" style="text;html=1;strokeColor=none;fillColor=none;align=center;verticalAlign=middle;whiteSpace=wrap;rounded=0;" vertex="1" parent="1">
          <mxGeometry x="720" y="410" width="40" height="20" as="geometry" />
        </mxCell>
        <mxCell id="4C-m3Tlw4VcEuLrEaa6P-103" value="&lt;font color=&quot;#ffffff&quot; style=&quot;font-size: 27px&quot;&gt;-&lt;/font&gt;" style="text;html=1;strokeColor=none;fillColor=none;align=center;verticalAlign=middle;whiteSpace=wrap;rounded=0;" vertex="1" parent="1">
          <mxGeometry x="760" y="410" width="40" height="20" as="geometry" />
        </mxCell>
        <mxCell id="4C-m3Tlw4VcEuLrEaa6P-104" value="" style="rounded=1;whiteSpace=wrap;html=1;" vertex="1" parent="1">
          <mxGeometry y="440" width="850" height="40" as="geometry" />
        </mxCell>
        <mxCell id="4C-m3Tlw4VcEuLrEaa6P-105" value="&lt;span style=&quot;font-size: 17px&quot;&gt;9&lt;/span&gt;" style="text;html=1;strokeColor=none;fillColor=none;align=center;verticalAlign=middle;whiteSpace=wrap;rounded=0;" vertex="1" parent="1">
          <mxGeometry x="85" y="450" width="40" height="20" as="geometry" />
        </mxCell>
        <mxCell id="4C-m3Tlw4VcEuLrEaa6P-106" value="&lt;span style=&quot;font-size: 17px&quot;&gt;4&lt;/span&gt;" style="text;html=1;strokeColor=none;fillColor=none;align=center;verticalAlign=middle;whiteSpace=wrap;rounded=0;" vertex="1" parent="1">
          <mxGeometry x="230" y="450" width="40" height="20" as="geometry" />
        </mxCell>
        <mxCell id="4C-m3Tlw4VcEuLrEaa6P-107" value="&lt;span style=&quot;font-size: 17px&quot;&gt;-&lt;/span&gt;" style="text;html=1;strokeColor=none;fillColor=none;align=center;verticalAlign=middle;whiteSpace=wrap;rounded=0;strokeWidth=6;" vertex="1" parent="1">
          <mxGeometry x="405" y="450" width="40" height="20" as="geometry" />
        </mxCell>
        <mxCell id="4C-m3Tlw4VcEuLrEaa6P-108" value="&lt;span style=&quot;font-size: 17px&quot;&gt;-&lt;/span&gt;" style="text;html=1;strokeColor=none;fillColor=none;align=center;verticalAlign=middle;whiteSpace=wrap;rounded=0;" vertex="1" parent="1">
          <mxGeometry x="570" y="450" width="40" height="20" as="geometry" />
        </mxCell>
        <mxCell id="4C-m3Tlw4VcEuLrEaa6P-109" value="" style="whiteSpace=wrap;html=1;aspect=fixed;strokeWidth=6;strokeColor=none;fillColor=#66CC00;" vertex="1" parent="1">
          <mxGeometry x="720" y="440" width="40" height="40" as="geometry" />
        </mxCell>
        <mxCell id="4C-m3Tlw4VcEuLrEaa6P-110" value="" style="whiteSpace=wrap;html=1;aspect=fixed;strokeWidth=6;strokeColor=none;fillColor=#FF0000;" vertex="1" parent="1">
          <mxGeometry x="760" y="440" width="40" height="40" as="geometry" />
        </mxCell>
        <mxCell id="4C-m3Tlw4VcEuLrEaa6P-111" value="&lt;font color=&quot;#ffffff&quot; style=&quot;font-size: 27px&quot;&gt;+&lt;/font&gt;" style="text;html=1;strokeColor=none;fillColor=none;align=center;verticalAlign=middle;whiteSpace=wrap;rounded=0;" vertex="1" parent="1">
          <mxGeometry x="720" y="450" width="40" height="20" as="geometry" />
        </mxCell>
        <mxCell id="4C-m3Tlw4VcEuLrEaa6P-112" value="&lt;font color=&quot;#ffffff&quot; style=&quot;font-size: 27px&quot;&gt;-&lt;/font&gt;" style="text;html=1;strokeColor=none;fillColor=none;align=center;verticalAlign=middle;whiteSpace=wrap;rounded=0;" vertex="1" parent="1">
          <mxGeometry x="760" y="450" width="40" height="20" as="geometry" />
        </mxCell>
        <mxCell id="4C-m3Tlw4VcEuLrEaa6P-122" value="" style="rounded=1;whiteSpace=wrap;html=1;fillColor=#f5f5f5;strokeColor=#666666;fontColor=#333333;" vertex="1" parent="1">
          <mxGeometry y="480" width="850" height="40" as="geometry" />
        </mxCell>
        <mxCell id="4C-m3Tlw4VcEuLrEaa6P-123" value="&lt;span style=&quot;font-size: 17px&quot;&gt;10&lt;/span&gt;" style="text;html=1;strokeColor=none;fillColor=none;align=center;verticalAlign=middle;whiteSpace=wrap;rounded=0;" vertex="1" parent="1">
          <mxGeometry x="85" y="490" width="40" height="20" as="geometry" />
        </mxCell>
        <mxCell id="4C-m3Tlw4VcEuLrEaa6P-124" value="&lt;span style=&quot;font-size: 17px&quot;&gt;4&lt;/span&gt;" style="text;html=1;strokeColor=none;fillColor=none;align=center;verticalAlign=middle;whiteSpace=wrap;rounded=0;" vertex="1" parent="1">
          <mxGeometry x="230" y="490" width="40" height="20" as="geometry" />
        </mxCell>
        <mxCell id="4C-m3Tlw4VcEuLrEaa6P-125" value="&lt;span style=&quot;font-size: 17px&quot;&gt;-&lt;/span&gt;" style="text;html=1;strokeColor=none;fillColor=none;align=center;verticalAlign=middle;whiteSpace=wrap;rounded=0;strokeWidth=6;" vertex="1" parent="1">
          <mxGeometry x="405" y="490" width="40" height="20" as="geometry" />
        </mxCell>
        <mxCell id="4C-m3Tlw4VcEuLrEaa6P-126" value="&lt;span style=&quot;font-size: 17px&quot;&gt;-&lt;/span&gt;" style="text;html=1;strokeColor=none;fillColor=none;align=center;verticalAlign=middle;whiteSpace=wrap;rounded=0;" vertex="1" parent="1">
          <mxGeometry x="570" y="490" width="40" height="20" as="geometry" />
        </mxCell>
        <mxCell id="4C-m3Tlw4VcEuLrEaa6P-127" value="" style="whiteSpace=wrap;html=1;aspect=fixed;strokeWidth=6;strokeColor=none;fillColor=#66CC00;" vertex="1" parent="1">
          <mxGeometry x="720" y="480" width="40" height="40" as="geometry" />
        </mxCell>
        <mxCell id="4C-m3Tlw4VcEuLrEaa6P-128" value="" style="whiteSpace=wrap;html=1;aspect=fixed;strokeWidth=6;strokeColor=none;fillColor=#FF0000;" vertex="1" parent="1">
          <mxGeometry x="760" y="480" width="40" height="40" as="geometry" />
        </mxCell>
        <mxCell id="4C-m3Tlw4VcEuLrEaa6P-129" value="&lt;font color=&quot;#ffffff&quot; style=&quot;font-size: 27px&quot;&gt;+&lt;/font&gt;" style="text;html=1;strokeColor=none;fillColor=none;align=center;verticalAlign=middle;whiteSpace=wrap;rounded=0;" vertex="1" parent="1">
          <mxGeometry x="720" y="490" width="40" height="20" as="geometry" />
        </mxCell>
        <mxCell id="4C-m3Tlw4VcEuLrEaa6P-130" value="&lt;font color=&quot;#ffffff&quot; style=&quot;font-size: 27px&quot;&gt;-&lt;/font&gt;" style="text;html=1;strokeColor=none;fillColor=none;align=center;verticalAlign=middle;whiteSpace=wrap;rounded=0;" vertex="1" parent="1">
          <mxGeometry x="760" y="490" width="40" height="20" as="geometry" />
        </mxCell>
        <mxCell id="4C-m3Tlw4VcEuLrEaa6P-131" value="" style="rounded=1;whiteSpace=wrap;html=1;" vertex="1" parent="1">
          <mxGeometry y="520" width="850" height="40" as="geometry" />
        </mxCell>
        <mxCell id="4C-m3Tlw4VcEuLrEaa6P-132" value="&lt;span style=&quot;font-size: 17px&quot;&gt;11&lt;/span&gt;" style="text;html=1;strokeColor=none;fillColor=none;align=center;verticalAlign=middle;whiteSpace=wrap;rounded=0;" vertex="1" parent="1">
          <mxGeometry x="85" y="530" width="40" height="20" as="geometry" />
        </mxCell>
        <mxCell id="4C-m3Tlw4VcEuLrEaa6P-133" value="&lt;span style=&quot;font-size: 17px&quot;&gt;4&lt;/span&gt;" style="text;html=1;strokeColor=none;fillColor=none;align=center;verticalAlign=middle;whiteSpace=wrap;rounded=0;" vertex="1" parent="1">
          <mxGeometry x="230" y="530" width="40" height="20" as="geometry" />
        </mxCell>
        <mxCell id="4C-m3Tlw4VcEuLrEaa6P-134" value="&lt;span style=&quot;font-size: 17px&quot;&gt;-&lt;/span&gt;" style="text;html=1;strokeColor=none;fillColor=none;align=center;verticalAlign=middle;whiteSpace=wrap;rounded=0;strokeWidth=6;" vertex="1" parent="1">
          <mxGeometry x="405" y="530" width="40" height="20" as="geometry" />
        </mxCell>
        <mxCell id="4C-m3Tlw4VcEuLrEaa6P-135" value="&lt;span style=&quot;font-size: 17px&quot;&gt;-&lt;/span&gt;" style="text;html=1;strokeColor=none;fillColor=none;align=center;verticalAlign=middle;whiteSpace=wrap;rounded=0;" vertex="1" parent="1">
          <mxGeometry x="570" y="530" width="40" height="20" as="geometry" />
        </mxCell>
        <mxCell id="4C-m3Tlw4VcEuLrEaa6P-136" value="" style="whiteSpace=wrap;html=1;aspect=fixed;strokeWidth=6;strokeColor=none;fillColor=#66CC00;" vertex="1" parent="1">
          <mxGeometry x="720" y="520" width="40" height="40" as="geometry" />
        </mxCell>
        <mxCell id="4C-m3Tlw4VcEuLrEaa6P-137" value="" style="whiteSpace=wrap;html=1;aspect=fixed;strokeWidth=6;strokeColor=none;fillColor=#FF0000;" vertex="1" parent="1">
          <mxGeometry x="760" y="520" width="40" height="40" as="geometry" />
        </mxCell>
        <mxCell id="4C-m3Tlw4VcEuLrEaa6P-138" value="&lt;font color=&quot;#ffffff&quot; style=&quot;font-size: 27px&quot;&gt;+&lt;/font&gt;" style="text;html=1;strokeColor=none;fillColor=none;align=center;verticalAlign=middle;whiteSpace=wrap;rounded=0;" vertex="1" parent="1">
          <mxGeometry x="720" y="530" width="40" height="20" as="geometry" />
        </mxCell>
        <mxCell id="4C-m3Tlw4VcEuLrEaa6P-139" value="&lt;font color=&quot;#ffffff&quot; style=&quot;font-size: 27px&quot;&gt;-&lt;/font&gt;" style="text;html=1;strokeColor=none;fillColor=none;align=center;verticalAlign=middle;whiteSpace=wrap;rounded=0;" vertex="1" parent="1">
          <mxGeometry x="760" y="530" width="40" height="20" as="geometry" />
        </mxCell>
        <mxCell id="4C-m3Tlw4VcEuLrEaa6P-140" value="" style="rounded=1;whiteSpace=wrap;html=1;fillColor=#f5f5f5;strokeColor=#666666;fontColor=#333333;" vertex="1" parent="1">
          <mxGeometry y="560" width="850" height="40" as="geometry" />
        </mxCell>
        <mxCell id="4C-m3Tlw4VcEuLrEaa6P-141" value="&lt;span style=&quot;font-size: 17px&quot;&gt;12&lt;/span&gt;" style="text;html=1;strokeColor=none;fillColor=none;align=center;verticalAlign=middle;whiteSpace=wrap;rounded=0;" vertex="1" parent="1">
          <mxGeometry x="85" y="570" width="40" height="20" as="geometry" />
        </mxCell>
        <mxCell id="4C-m3Tlw4VcEuLrEaa6P-142" value="&lt;span style=&quot;font-size: 17px&quot;&gt;4&lt;/span&gt;" style="text;html=1;strokeColor=none;fillColor=none;align=center;verticalAlign=middle;whiteSpace=wrap;rounded=0;" vertex="1" parent="1">
          <mxGeometry x="230" y="570" width="40" height="20" as="geometry" />
        </mxCell>
        <mxCell id="4C-m3Tlw4VcEuLrEaa6P-143" value="&lt;span style=&quot;font-size: 17px&quot;&gt;-&lt;/span&gt;" style="text;html=1;strokeColor=none;fillColor=none;align=center;verticalAlign=middle;whiteSpace=wrap;rounded=0;strokeWidth=6;" vertex="1" parent="1">
          <mxGeometry x="405" y="570" width="40" height="20" as="geometry" />
        </mxCell>
        <mxCell id="4C-m3Tlw4VcEuLrEaa6P-144" value="&lt;span style=&quot;font-size: 17px&quot;&gt;-&lt;/span&gt;" style="text;html=1;strokeColor=none;fillColor=none;align=center;verticalAlign=middle;whiteSpace=wrap;rounded=0;" vertex="1" parent="1">
          <mxGeometry x="570" y="570" width="40" height="20" as="geometry" />
        </mxCell>
        <mxCell id="4C-m3Tlw4VcEuLrEaa6P-145" value="" style="whiteSpace=wrap;html=1;aspect=fixed;strokeWidth=6;strokeColor=none;fillColor=#66CC00;" vertex="1" parent="1">
          <mxGeometry x="720" y="560" width="40" height="40" as="geometry" />
        </mxCell>
        <mxCell id="4C-m3Tlw4VcEuLrEaa6P-146" value="" style="whiteSpace=wrap;html=1;aspect=fixed;strokeWidth=6;strokeColor=none;fillColor=#FF0000;" vertex="1" parent="1">
          <mxGeometry x="760" y="560" width="40" height="40" as="geometry" />
        </mxCell>
        <mxCell id="4C-m3Tlw4VcEuLrEaa6P-147" value="&lt;font color=&quot;#ffffff&quot; style=&quot;font-size: 27px&quot;&gt;+&lt;/font&gt;" style="text;html=1;strokeColor=none;fillColor=none;align=center;verticalAlign=middle;whiteSpace=wrap;rounded=0;" vertex="1" parent="1">
          <mxGeometry x="720" y="570" width="40" height="20" as="geometry" />
        </mxCell>
        <mxCell id="4C-m3Tlw4VcEuLrEaa6P-148" value="&lt;font color=&quot;#ffffff&quot; style=&quot;font-size: 27px&quot;&gt;-&lt;/font&gt;" style="text;html=1;strokeColor=none;fillColor=none;align=center;verticalAlign=middle;whiteSpace=wrap;rounded=0;" vertex="1" parent="1">
          <mxGeometry x="760" y="570" width="40" height="20" as="geometry" />
        </mxCell>
        <mxCell id="4C-m3Tlw4VcEuLrEaa6P-149" value="" style="rounded=1;whiteSpace=wrap;html=1;" vertex="1" parent="1">
          <mxGeometry y="600" width="850" height="40" as="geometry" />
        </mxCell>
        <mxCell id="4C-m3Tlw4VcEuLrEaa6P-150" value="&lt;span style=&quot;font-size: 17px&quot;&gt;13&lt;/span&gt;" style="text;html=1;strokeColor=none;fillColor=none;align=center;verticalAlign=middle;whiteSpace=wrap;rounded=0;" vertex="1" parent="1">
          <mxGeometry x="85" y="610" width="40" height="20" as="geometry" />
        </mxCell>
        <mxCell id="4C-m3Tlw4VcEuLrEaa6P-151" value="&lt;span style=&quot;font-size: 17px&quot;&gt;4&lt;/span&gt;" style="text;html=1;strokeColor=none;fillColor=none;align=center;verticalAlign=middle;whiteSpace=wrap;rounded=0;" vertex="1" parent="1">
          <mxGeometry x="230" y="610" width="40" height="20" as="geometry" />
        </mxCell>
        <mxCell id="4C-m3Tlw4VcEuLrEaa6P-152" value="&lt;span style=&quot;font-size: 17px&quot;&gt;-&lt;/span&gt;" style="text;html=1;strokeColor=none;fillColor=none;align=center;verticalAlign=middle;whiteSpace=wrap;rounded=0;strokeWidth=6;" vertex="1" parent="1">
          <mxGeometry x="405" y="610" width="40" height="20" as="geometry" />
        </mxCell>
        <mxCell id="4C-m3Tlw4VcEuLrEaa6P-153" value="&lt;span style=&quot;font-size: 17px&quot;&gt;-&lt;/span&gt;" style="text;html=1;strokeColor=none;fillColor=none;align=center;verticalAlign=middle;whiteSpace=wrap;rounded=0;" vertex="1" parent="1">
          <mxGeometry x="570" y="610" width="40" height="20" as="geometry" />
        </mxCell>
        <mxCell id="4C-m3Tlw4VcEuLrEaa6P-154" value="" style="whiteSpace=wrap;html=1;aspect=fixed;strokeWidth=6;strokeColor=none;fillColor=#66CC00;" vertex="1" parent="1">
          <mxGeometry x="720" y="600" width="40" height="40" as="geometry" />
        </mxCell>
        <mxCell id="4C-m3Tlw4VcEuLrEaa6P-155" value="" style="whiteSpace=wrap;html=1;aspect=fixed;strokeWidth=6;strokeColor=none;fillColor=#FF0000;" vertex="1" parent="1">
          <mxGeometry x="760" y="600" width="40" height="40" as="geometry" />
        </mxCell>
        <mxCell id="4C-m3Tlw4VcEuLrEaa6P-156" value="&lt;font color=&quot;#ffffff&quot; style=&quot;font-size: 27px&quot;&gt;+&lt;/font&gt;" style="text;html=1;strokeColor=none;fillColor=none;align=center;verticalAlign=middle;whiteSpace=wrap;rounded=0;" vertex="1" parent="1">
          <mxGeometry x="720" y="610" width="40" height="20" as="geometry" />
        </mxCell>
        <mxCell id="4C-m3Tlw4VcEuLrEaa6P-157" value="&lt;font color=&quot;#ffffff&quot; style=&quot;font-size: 27px&quot;&gt;-&lt;/font&gt;" style="text;html=1;strokeColor=none;fillColor=none;align=center;verticalAlign=middle;whiteSpace=wrap;rounded=0;" vertex="1" parent="1">
          <mxGeometry x="760" y="610" width="40" height="20" as="geometry" />
        </mxCell>
        <mxCell id="4C-m3Tlw4VcEuLrEaa6P-158" value="" style="rounded=1;whiteSpace=wrap;html=1;fillColor=#f5f5f5;strokeColor=#666666;fontColor=#333333;" vertex="1" parent="1">
          <mxGeometry y="640" width="850" height="40" as="geometry" />
        </mxCell>
        <mxCell id="4C-m3Tlw4VcEuLrEaa6P-159" value="&lt;span style=&quot;font-size: 17px&quot;&gt;14&lt;/span&gt;" style="text;html=1;strokeColor=none;fillColor=none;align=center;verticalAlign=middle;whiteSpace=wrap;rounded=0;" vertex="1" parent="1">
          <mxGeometry x="85" y="650" width="40" height="20" as="geometry" />
        </mxCell>
        <mxCell id="4C-m3Tlw4VcEuLrEaa6P-160" value="&lt;span style=&quot;font-size: 17px&quot;&gt;4&lt;/span&gt;" style="text;html=1;strokeColor=none;fillColor=none;align=center;verticalAlign=middle;whiteSpace=wrap;rounded=0;" vertex="1" parent="1">
          <mxGeometry x="230" y="650" width="40" height="20" as="geometry" />
        </mxCell>
        <mxCell id="4C-m3Tlw4VcEuLrEaa6P-161" value="&lt;span style=&quot;font-size: 17px&quot;&gt;-&lt;/span&gt;" style="text;html=1;strokeColor=none;fillColor=none;align=center;verticalAlign=middle;whiteSpace=wrap;rounded=0;strokeWidth=6;" vertex="1" parent="1">
          <mxGeometry x="405" y="650" width="40" height="20" as="geometry" />
        </mxCell>
        <mxCell id="4C-m3Tlw4VcEuLrEaa6P-162" value="&lt;span style=&quot;font-size: 17px&quot;&gt;-&lt;/span&gt;" style="text;html=1;strokeColor=none;fillColor=none;align=center;verticalAlign=middle;whiteSpace=wrap;rounded=0;" vertex="1" parent="1">
          <mxGeometry x="570" y="650" width="40" height="20" as="geometry" />
        </mxCell>
        <mxCell id="4C-m3Tlw4VcEuLrEaa6P-163" value="" style="whiteSpace=wrap;html=1;aspect=fixed;strokeWidth=6;strokeColor=none;fillColor=#66CC00;" vertex="1" parent="1">
          <mxGeometry x="720" y="640" width="40" height="40" as="geometry" />
        </mxCell>
        <mxCell id="4C-m3Tlw4VcEuLrEaa6P-164" value="" style="whiteSpace=wrap;html=1;aspect=fixed;strokeWidth=6;strokeColor=none;fillColor=#FF0000;" vertex="1" parent="1">
          <mxGeometry x="760" y="640" width="40" height="40" as="geometry" />
        </mxCell>
        <mxCell id="4C-m3Tlw4VcEuLrEaa6P-165" value="&lt;font color=&quot;#ffffff&quot; style=&quot;font-size: 27px&quot;&gt;+&lt;/font&gt;" style="text;html=1;strokeColor=none;fillColor=none;align=center;verticalAlign=middle;whiteSpace=wrap;rounded=0;" vertex="1" parent="1">
          <mxGeometry x="720" y="650" width="40" height="20" as="geometry" />
        </mxCell>
        <mxCell id="4C-m3Tlw4VcEuLrEaa6P-166" value="&lt;font color=&quot;#ffffff&quot; style=&quot;font-size: 27px&quot;&gt;-&lt;/font&gt;" style="text;html=1;strokeColor=none;fillColor=none;align=center;verticalAlign=middle;whiteSpace=wrap;rounded=0;" vertex="1" parent="1">
          <mxGeometry x="760" y="650" width="40" height="20" as="geometry" />
        </mxCell>
        <mxCell id="4C-m3Tlw4VcEuLrEaa6P-167" value="" style="rounded=1;whiteSpace=wrap;html=1;" vertex="1" parent="1">
          <mxGeometry y="680" width="850" height="40" as="geometry" />
        </mxCell>
        <mxCell id="4C-m3Tlw4VcEuLrEaa6P-168" value="&lt;span style=&quot;font-size: 17px&quot;&gt;15&lt;/span&gt;" style="text;html=1;strokeColor=none;fillColor=none;align=center;verticalAlign=middle;whiteSpace=wrap;rounded=0;" vertex="1" parent="1">
          <mxGeometry x="85" y="690" width="40" height="20" as="geometry" />
        </mxCell>
        <mxCell id="4C-m3Tlw4VcEuLrEaa6P-169" value="&lt;span style=&quot;font-size: 17px&quot;&gt;4&lt;/span&gt;" style="text;html=1;strokeColor=none;fillColor=none;align=center;verticalAlign=middle;whiteSpace=wrap;rounded=0;" vertex="1" parent="1">
          <mxGeometry x="230" y="690" width="40" height="20" as="geometry" />
        </mxCell>
        <mxCell id="4C-m3Tlw4VcEuLrEaa6P-170" value="&lt;span style=&quot;font-size: 17px&quot;&gt;-&lt;/span&gt;" style="text;html=1;strokeColor=none;fillColor=none;align=center;verticalAlign=middle;whiteSpace=wrap;rounded=0;strokeWidth=6;" vertex="1" parent="1">
          <mxGeometry x="405" y="690" width="40" height="20" as="geometry" />
        </mxCell>
        <mxCell id="4C-m3Tlw4VcEuLrEaa6P-171" value="&lt;span style=&quot;font-size: 17px&quot;&gt;-&lt;/span&gt;" style="text;html=1;strokeColor=none;fillColor=none;align=center;verticalAlign=middle;whiteSpace=wrap;rounded=0;" vertex="1" parent="1">
          <mxGeometry x="570" y="690" width="40" height="20" as="geometry" />
        </mxCell>
        <mxCell id="4C-m3Tlw4VcEuLrEaa6P-172" value="" style="whiteSpace=wrap;html=1;aspect=fixed;strokeWidth=6;strokeColor=none;fillColor=#66CC00;" vertex="1" parent="1">
          <mxGeometry x="720" y="680" width="40" height="40" as="geometry" />
        </mxCell>
        <mxCell id="4C-m3Tlw4VcEuLrEaa6P-173" value="" style="whiteSpace=wrap;html=1;aspect=fixed;strokeWidth=6;strokeColor=none;fillColor=#FF0000;" vertex="1" parent="1">
          <mxGeometry x="760" y="680" width="40" height="40" as="geometry" />
        </mxCell>
        <mxCell id="4C-m3Tlw4VcEuLrEaa6P-174" value="&lt;font color=&quot;#ffffff&quot; style=&quot;font-size: 27px&quot;&gt;+&lt;/font&gt;" style="text;html=1;strokeColor=none;fillColor=none;align=center;verticalAlign=middle;whiteSpace=wrap;rounded=0;" vertex="1" parent="1">
          <mxGeometry x="720" y="690" width="40" height="20" as="geometry" />
        </mxCell>
        <mxCell id="4C-m3Tlw4VcEuLrEaa6P-175" value="&lt;font color=&quot;#ffffff&quot; style=&quot;font-size: 27px&quot;&gt;-&lt;/font&gt;" style="text;html=1;strokeColor=none;fillColor=none;align=center;verticalAlign=middle;whiteSpace=wrap;rounded=0;" vertex="1" parent="1">
          <mxGeometry x="760" y="690" width="40" height="20" as="geometry" />
        </mxCell>
        <mxCell id="4C-m3Tlw4VcEuLrEaa6P-176" value="" style="rounded=1;whiteSpace=wrap;html=1;fillColor=#f5f5f5;strokeColor=#666666;fontColor=#333333;" vertex="1" parent="1">
          <mxGeometry y="720" width="850" height="40" as="geometry" />
        </mxCell>
        <mxCell id="4C-m3Tlw4VcEuLrEaa6P-177" value="&lt;span style=&quot;font-size: 17px&quot;&gt;16&lt;/span&gt;" style="text;html=1;strokeColor=none;fillColor=none;align=center;verticalAlign=middle;whiteSpace=wrap;rounded=0;" vertex="1" parent="1">
          <mxGeometry x="85" y="730" width="40" height="20" as="geometry" />
        </mxCell>
        <mxCell id="4C-m3Tlw4VcEuLrEaa6P-178" value="&lt;span style=&quot;font-size: 17px&quot;&gt;4&lt;/span&gt;" style="text;html=1;strokeColor=none;fillColor=none;align=center;verticalAlign=middle;whiteSpace=wrap;rounded=0;" vertex="1" parent="1">
          <mxGeometry x="230" y="730" width="40" height="20" as="geometry" />
        </mxCell>
        <mxCell id="4C-m3Tlw4VcEuLrEaa6P-179" value="&lt;span style=&quot;font-size: 17px&quot;&gt;-&lt;/span&gt;" style="text;html=1;strokeColor=none;fillColor=none;align=center;verticalAlign=middle;whiteSpace=wrap;rounded=0;strokeWidth=6;" vertex="1" parent="1">
          <mxGeometry x="405" y="730" width="40" height="20" as="geometry" />
        </mxCell>
        <mxCell id="4C-m3Tlw4VcEuLrEaa6P-180" value="&lt;span style=&quot;font-size: 17px&quot;&gt;-&lt;/span&gt;" style="text;html=1;strokeColor=none;fillColor=none;align=center;verticalAlign=middle;whiteSpace=wrap;rounded=0;" vertex="1" parent="1">
          <mxGeometry x="570" y="730" width="40" height="20" as="geometry" />
        </mxCell>
        <mxCell id="4C-m3Tlw4VcEuLrEaa6P-181" value="" style="whiteSpace=wrap;html=1;aspect=fixed;strokeWidth=6;strokeColor=none;fillColor=#66CC00;" vertex="1" parent="1">
          <mxGeometry x="720" y="720" width="40" height="40" as="geometry" />
        </mxCell>
        <mxCell id="4C-m3Tlw4VcEuLrEaa6P-182" value="" style="whiteSpace=wrap;html=1;aspect=fixed;strokeWidth=6;strokeColor=none;fillColor=#FF0000;" vertex="1" parent="1">
          <mxGeometry x="760" y="720" width="40" height="40" as="geometry" />
        </mxCell>
        <mxCell id="4C-m3Tlw4VcEuLrEaa6P-183" value="&lt;font color=&quot;#ffffff&quot; style=&quot;font-size: 27px&quot;&gt;+&lt;/font&gt;" style="text;html=1;strokeColor=none;fillColor=none;align=center;verticalAlign=middle;whiteSpace=wrap;rounded=0;" vertex="1" parent="1">
          <mxGeometry x="720" y="730" width="40" height="20" as="geometry" />
        </mxCell>
        <mxCell id="4C-m3Tlw4VcEuLrEaa6P-184" value="&lt;font color=&quot;#ffffff&quot; style=&quot;font-size: 27px&quot;&gt;-&lt;/font&gt;" style="text;html=1;strokeColor=none;fillColor=none;align=center;verticalAlign=middle;whiteSpace=wrap;rounded=0;" vertex="1" parent="1">
          <mxGeometry x="760" y="730" width="40" height="20" as="geometry" />
        </mxCell>
        <mxCell id="4C-m3Tlw4VcEuLrEaa6P-185" value="" style="rounded=1;whiteSpace=wrap;html=1;" vertex="1" parent="1">
          <mxGeometry y="760" width="850" height="40" as="geometry" />
        </mxCell>
        <mxCell id="4C-m3Tlw4VcEuLrEaa6P-186" value="&lt;span style=&quot;font-size: 17px&quot;&gt;17&lt;/span&gt;" style="text;html=1;strokeColor=none;fillColor=none;align=center;verticalAlign=middle;whiteSpace=wrap;rounded=0;" vertex="1" parent="1">
          <mxGeometry x="85" y="770" width="40" height="20" as="geometry" />
        </mxCell>
        <mxCell id="4C-m3Tlw4VcEuLrEaa6P-187" value="&lt;span style=&quot;font-size: 17px&quot;&gt;4&lt;/span&gt;" style="text;html=1;strokeColor=none;fillColor=none;align=center;verticalAlign=middle;whiteSpace=wrap;rounded=0;" vertex="1" parent="1">
          <mxGeometry x="230" y="770" width="40" height="20" as="geometry" />
        </mxCell>
        <mxCell id="4C-m3Tlw4VcEuLrEaa6P-188" value="&lt;span style=&quot;font-size: 17px&quot;&gt;-&lt;/span&gt;" style="text;html=1;strokeColor=none;fillColor=none;align=center;verticalAlign=middle;whiteSpace=wrap;rounded=0;strokeWidth=6;" vertex="1" parent="1">
          <mxGeometry x="405" y="770" width="40" height="20" as="geometry" />
        </mxCell>
        <mxCell id="4C-m3Tlw4VcEuLrEaa6P-189" value="&lt;span style=&quot;font-size: 17px&quot;&gt;-&lt;/span&gt;" style="text;html=1;strokeColor=none;fillColor=none;align=center;verticalAlign=middle;whiteSpace=wrap;rounded=0;" vertex="1" parent="1">
          <mxGeometry x="570" y="770" width="40" height="20" as="geometry" />
        </mxCell>
        <mxCell id="4C-m3Tlw4VcEuLrEaa6P-190" value="" style="whiteSpace=wrap;html=1;aspect=fixed;strokeWidth=6;strokeColor=none;fillColor=#66CC00;" vertex="1" parent="1">
          <mxGeometry x="720" y="760" width="40" height="40" as="geometry" />
        </mxCell>
        <mxCell id="4C-m3Tlw4VcEuLrEaa6P-191" value="" style="whiteSpace=wrap;html=1;aspect=fixed;strokeWidth=6;strokeColor=none;fillColor=#FF0000;" vertex="1" parent="1">
          <mxGeometry x="760" y="760" width="40" height="40" as="geometry" />
        </mxCell>
        <mxCell id="4C-m3Tlw4VcEuLrEaa6P-192" value="&lt;font color=&quot;#ffffff&quot; style=&quot;font-size: 27px&quot;&gt;+&lt;/font&gt;" style="text;html=1;strokeColor=none;fillColor=none;align=center;verticalAlign=middle;whiteSpace=wrap;rounded=0;" vertex="1" parent="1">
          <mxGeometry x="720" y="770" width="40" height="20" as="geometry" />
        </mxCell>
        <mxCell id="4C-m3Tlw4VcEuLrEaa6P-193" value="&lt;font color=&quot;#ffffff&quot; style=&quot;font-size: 27px&quot;&gt;-&lt;/font&gt;" style="text;html=1;strokeColor=none;fillColor=none;align=center;verticalAlign=middle;whiteSpace=wrap;rounded=0;" vertex="1" parent="1">
          <mxGeometry x="760" y="770" width="40" height="20" as="geometry" />
        </mxCell>
        <mxCell id="4C-m3Tlw4VcEuLrEaa6P-194" value="" style="rounded=1;whiteSpace=wrap;html=1;fillColor=#f5f5f5;strokeColor=#666666;fontColor=#333333;" vertex="1" parent="1">
          <mxGeometry y="800" width="850" height="40" as="geometry" />
        </mxCell>
        <mxCell id="4C-m3Tlw4VcEuLrEaa6P-195" value="&lt;span style=&quot;font-size: 17px&quot;&gt;18&lt;/span&gt;" style="text;html=1;strokeColor=none;fillColor=none;align=center;verticalAlign=middle;whiteSpace=wrap;rounded=0;" vertex="1" parent="1">
          <mxGeometry x="85" y="810" width="40" height="20" as="geometry" />
        </mxCell>
        <mxCell id="4C-m3Tlw4VcEuLrEaa6P-196" value="&lt;span style=&quot;font-size: 17px&quot;&gt;4&lt;/span&gt;" style="text;html=1;strokeColor=none;fillColor=none;align=center;verticalAlign=middle;whiteSpace=wrap;rounded=0;" vertex="1" parent="1">
          <mxGeometry x="230" y="810" width="40" height="20" as="geometry" />
        </mxCell>
        <mxCell id="4C-m3Tlw4VcEuLrEaa6P-197" value="&lt;span style=&quot;font-size: 17px&quot;&gt;-&lt;/span&gt;" style="text;html=1;strokeColor=none;fillColor=none;align=center;verticalAlign=middle;whiteSpace=wrap;rounded=0;strokeWidth=6;" vertex="1" parent="1">
          <mxGeometry x="405" y="810" width="40" height="20" as="geometry" />
        </mxCell>
        <mxCell id="4C-m3Tlw4VcEuLrEaa6P-198" value="&lt;span style=&quot;font-size: 17px&quot;&gt;-&lt;/span&gt;" style="text;html=1;strokeColor=none;fillColor=none;align=center;verticalAlign=middle;whiteSpace=wrap;rounded=0;" vertex="1" parent="1">
          <mxGeometry x="570" y="810" width="40" height="20" as="geometry" />
        </mxCell>
        <mxCell id="4C-m3Tlw4VcEuLrEaa6P-199" value="" style="whiteSpace=wrap;html=1;aspect=fixed;strokeWidth=6;strokeColor=none;fillColor=#66CC00;" vertex="1" parent="1">
          <mxGeometry x="720" y="800" width="40" height="40" as="geometry" />
        </mxCell>
        <mxCell id="4C-m3Tlw4VcEuLrEaa6P-200" value="" style="whiteSpace=wrap;html=1;aspect=fixed;strokeWidth=6;strokeColor=none;fillColor=#FF0000;" vertex="1" parent="1">
          <mxGeometry x="760" y="800" width="40" height="40" as="geometry" />
        </mxCell>
        <mxCell id="4C-m3Tlw4VcEuLrEaa6P-201" value="&lt;font color=&quot;#ffffff&quot; style=&quot;font-size: 27px&quot;&gt;+&lt;/font&gt;" style="text;html=1;strokeColor=none;fillColor=none;align=center;verticalAlign=middle;whiteSpace=wrap;rounded=0;" vertex="1" parent="1">
          <mxGeometry x="720" y="810" width="40" height="20" as="geometry" />
        </mxCell>
        <mxCell id="4C-m3Tlw4VcEuLrEaa6P-202" value="&lt;font color=&quot;#ffffff&quot; style=&quot;font-size: 27px&quot;&gt;-&lt;/font&gt;" style="text;html=1;strokeColor=none;fillColor=none;align=center;verticalAlign=middle;whiteSpace=wrap;rounded=0;" vertex="1" parent="1">
          <mxGeometry x="760" y="810" width="40" height="20" as="geometry" />
        </mxCell>
        <mxCell id="4C-m3Tlw4VcEuLrEaa6P-203" value="" style="rounded=1;whiteSpace=wrap;html=1;" vertex="1" parent="1">
          <mxGeometry y="840" width="850" height="40" as="geometry" />
        </mxCell>
        <mxCell id="4C-m3Tlw4VcEuLrEaa6P-204" value="&lt;span style=&quot;font-size: 17px&quot;&gt;TOTALS&lt;/span&gt;" style="text;html=1;strokeColor=none;fillColor=none;align=center;verticalAlign=middle;whiteSpace=wrap;rounded=0;" vertex="1" parent="1">
          <mxGeometry x="85" y="850" width="40" height="20" as="geometry" />
        </mxCell>
        <mxCell id="4C-m3Tlw4VcEuLrEaa6P-205" value="&lt;span style=&quot;font-size: 17px&quot;&gt;-&lt;/span&gt;" style="text;html=1;strokeColor=none;fillColor=none;align=center;verticalAlign=middle;whiteSpace=wrap;rounded=0;" vertex="1" parent="1">
          <mxGeometry x="230" y="850" width="40" height="20" as="geometry" />
        </mxCell>
        <mxCell id="4C-m3Tlw4VcEuLrEaa6P-206" value="&lt;span style=&quot;font-size: 17px&quot;&gt;-&lt;/span&gt;" style="text;html=1;strokeColor=none;fillColor=none;align=center;verticalAlign=middle;whiteSpace=wrap;rounded=0;strokeWidth=6;" vertex="1" parent="1">
          <mxGeometry x="405" y="850" width="40" height="20" as="geometry" />
        </mxCell>
        <mxCell id="4C-m3Tlw4VcEuLrEaa6P-207" value="&lt;span style=&quot;font-size: 17px&quot;&gt;-&lt;/span&gt;" style="text;html=1;strokeColor=none;fillColor=none;align=center;verticalAlign=middle;whiteSpace=wrap;rounded=0;" vertex="1" parent="1">
          <mxGeometry x="570" y="850" width="40" height="20" as="geometry" />
        </mxCell>
      </root>
    </mxGraphModel>
  </diagram>
</mxfile>
